<svg xmlns="http://www.w3.org/2000/svg" width="200" height="198" xmlns:v="https://vecta.io/nano"><path d="M99.9 140.4c-38.6 0-69.8-31.3-69.8-70S61.3.4 99.9.4c38.7 0 69.9 31.3 69.9 70s-31.2 70-69.9 70z" fill="#fff"/><g fill-rule="evenodd" fill="#7ac547"><path d="M168.5 57.8v.5l.9 4.9v-.3q.4 3.7.4 7.5c-.1.9-.6 1.8-.9 2.7-.1-8.4-2.2-13.3-2.2-13.4l-.1.1c0 .3 0 .3.2 1.1l.9 3.8c.2 1.1.1 2.3.3 3.4 0 .3.2.6.2.9.2.7.1 1.4.2 2.2.1.4.3.9.3 1.3.1.1.1.3.1.4q0 .2 0 .4c-.1.7-.1 1.4.4 2.2.2-.4.3-.9.4-1.2-.2 4.2-1.2 9.1-2.7 13.8-.9 2.7-1.9 5.4-3 8h-.1q-.7 1.7-1.5 3.3c-2.3 4.6-4.9 8.4-7.3 10.7q-.2.1-.4.3-.3.3-.7.6-.4.3-.7.5h-.1q-.1.1-.3.2-.2.1-.3.2h-.1q-.1.1-.3.1-.2.1-.3.1h-.1q-.1.1-.3.1-.1.1-.3.1-.2 0-.3 0-.2 0-.4 0l.1-.1v-.1l.1-.1.1-.2v-.2h.1v-.1-.1l.1-.1.1-.3.1-.3.1-.1v-.1l.1-.1.2-.6.3-.6q.4-1.1.9-2.4l.1-.2v-.1l.1-.1.1-.2v-.1l.1-.2.1-.2v-.1-.1l.1-.3.1-.2v-.1l.1-.1.1-.2.1-.3.1-.4v-.1l.1-.2.1-.2v-.1l.1-.1q.5-1.6 1.1-3v-.1l.3-.9.1-.3.3-.8.1-.2.1-.3v-.1l.1-.3.1-.2.1-.2v-.1l.3-.9.1-.2.1-.3v-.1-.1l.1-.2.2-.4.3-.9c.1-.5.9-12.6.9-12.7-1 .4-1 .4-1.5.2-.2-1.4-.9-2.6-3.7-.4-1.4-.1-1.8 0-3 .5-.1-.1-6.5-6.1-5.2-10.3.7-2.2 1-3.3-.3-5.2l4.6-12c.3-.5.5-1.1.8-1.6 1.5.9 2.2.5 2.7-.2.3-.5 4.2-1.8 4.7-.7.3 1.1-.1 2.2.5 3.2.6.9 1.9.9 2.5 1.8.2.3.6.7 1 .8.2.1.4.1.6.1 0-.6-.1-1.3-.1-1.9.1-.1.3-.2.5-.2 1.4 1.1 1.7 1.2 2.5 1.4l.2.1c.2.1.4.1.5.2.6-.9 0-4.5-.7-5.3-.1.1-.3.2-.4.3-.2-.3-.4-.7-.6-1 .1.3-.1.7-.3.9-1-1.4-.5-3.7-2.6-4.5 0 .1.1.3.2.5-.1.1-.2.3-.3.4.6 1.2.9 1.6 1.4 2.1-.5.3-.5.3-.7.9-2.3-2.8-3.7-6-5.6-8.9-.2 0-.4.1-.5.1 0 0 .8 2.7 2.3 3.3.3 1 1.2 1.5 1.5 2.3h-.5c1 1.1.1 2.4.4 3.5-.4-.4-1-1-1.4-1.5.3-.1.7-.4.9-.6-.1-1.1-3.8-5.3-4.3-5.5-.1.2-.2.5-.3.7h-.9-.9c.1.5.3 1 .3 1.9-1.1 1.4-.1 3.2-.8 4.7-.8 0-1.4.5-2.2.6-.6-.9-.8-.9-1.6-.9q-.2-.7-.3-1.4l-.6-.3c0-.4.1-.8.2-1.1-.3-1-.7-2.3-.9-3.3.1-.2.2-.4.4-.6q.6 0 1.3 0h1.6c.7-2.9-2.3-3.5-3.4-5.2.1-.2.2-.4.2-.6 1.9-.1 1.4-2.4 2.3-3.4-.2-1 .5-1.9.2-3s-1.6-1.5-1.8-2.7c-.1-.3-.1-.9 0-1.3 2.8 4.4 2.8 4.4 4.4 4.4 0-.3.1-.8.1-1.1.2.2.6.4.9.5a1.93 1.93 0 0 1-.3-1c-.5-.7-1.4-1.8-1.4-2.7.3.2.6.6.8.8v-.4c-.7-1-1.7-1.6-2.3-2.7.3-.1.6-.3.9-.5l-.5-.5q-1 .2-1.8 0c.3.6.5 1.2.4 2 1.8 3 1.8 3 1.3 3.9-1.3-1.4-2-3.3-3.7-4.3v1.1c-1.7-.1-10.6-14.6-10.6-15.8 2.3.8 8 4 8.4 5.4-.6-.3-1.1-.6-1.7-.9 1.7 1.3 3.1 2.8 5 3.9-.6-.6-1.2-1-1.7-1.6l1.4 1c-.1-.1-.1-.1-5.7-5.2l2.7 2.1c-1.9-1.7-2.8-2.3-3.1-2.6l-.2-.1c15.3 11 26 28.1 28.6 47.7q-.3-1.7-.7-3.4zM145 21.1c-.7-1.5-1.4-2.9-2.8-3.6v.1c.5.7.5.7 2 2.3q.3.7.8 1.2zm3.1 3.5c-.6-1.4-2.1-2.3-3.1-3.5.8 1.6 1.6 3.2 3.1 3.5zm-38.8-13.7q0 0 .1 0 .1 0 .1 0 .1 0 .2.1h.1.1v.1h.1.1v.1h.1.1v.1h.1.1v.1h.1.1.1.1.1.1c-.1-.1-.2-.3-2-2.1l-.1.1c.1.7.1.7 0 .8-.1 0-.7-.2-.8-1.2v-.1-.1-.1-.1l-.1-.1v-.1-.1q-.1-.1-.1-.3h-.1q-.1-.3-.2-.5-.2-.4-.5-.7l-.1-.1-.1-.1c-.5-.6-1-1-1.6-1.4q-.5-.4-1.1-.6-.5-.3-.9-.4-.2 0-.4 0-.1 0-.2 0h-.1v.1h-.1v.2c-.9-.3-1-.6-1.1-.9h-.1-.1v-.1h-.1c-.3-.1-.4-.2-.3-.4.1-.1.1-.1.5-.2-.3-.3-1-.3-1-.9 0-.2.1-.7.8-.7-.1-.3-.2-.4-.3-.5 1.3-.1 2.5-.1 3.5-.1l.2.1c2.7.4 7.3 2.1 8.1 2.5l-.1.1-.1.1c.1.1.1.1 2.4 1.3l1.4.8h.1v.1l.3.1.1.1h.1c.9.5 1.4 1.1 1.7 1.6l-.1.1c1.4 1.7 3.6 2.5 4.6 4.6v.1.1.1.1.1q0 .1 0 .2v.2q0 .1-.1.3v.1.1q-.1.1-.1.1v.1l-.1.1q0 .1-.1.1-.1.1-.1.1l-.1.1q-.1 0-.1 0v.1q-.1 0-.2 0-.1 0-.2.1-.1 0-.2 0h-.1-.1-.1v-.1h-.1-.1-.1-.1-.1-.1v.1h-.1c.5 1.5.5 1.5.2 2.5l-.1.1v.1l-.1.1q0 .1-.1.1-.1.1-.2.2v.1q-.2.1-.4.2v.1h-.1l-.1.1h-.1v.1l-.1.1h-.1v.1l-.1.1v.1h-.1q0 .2-.1.4c0 .7.6 1.1.7 1.7.1.4-.4.5-.4.9 0 .2.2.5.2.8.4 1.1.6 1.7.5 2.2-.2.8-.8.5-1.3.3-.5-.3-.4-1.2-1.2-1.1-.9.1-1.1.1-1.3-.2 0 0-1.4-1.7-2.7-3.6v-.1l-.1-.1-.1-.1-.1-.1v-.1l-.1-.1v-.1h-.1v-.1l-.1-.2h-.1v-.1q-.1-.2-.3-.4v-.1l-.1-.1v-.1l-.1-.1v-.1q-.3-.4-.5-.9h-.1v-.1-.1h-.1v-.1-.1h-.1v-.2h-.1v-.1-.1-.1l-.1-.1v-.1l-.1-.1v-.1-.1c-.4-1.3-.4-1.5.1-1.7.6-.2.2-1.2.2-1.2-.6-1.1-1.9-.9-2.6-1.8h.1q0 0 0 0zm-18.1 9.7c-4.4 4.7-4.4 4.7-4.4 5.4.3.3.9.5 1.2.4.2.1.4.3.5.4-.1.4-.2 1-.3 1.4 4.2 2.8 4.7 2.8 6.6 2.7-.3 3-.3 3 1.4 4.3h.8c.9-1.6-.4-4 1.8-5.1 0-1.4 0-1.4-1.3-3.7.8-1 .8-1 .5-4.1.2-.2.4-.3.6-.5 1.8.3 3.2 1.5 4.9 1.9.2.7.4 1.7.6 2.5.3.1.8.4 1 .7.9-.1.9-.1 1.5-2 .5.1 7.5 8.5 7.5 8.6v4.2l2-.1c.8 1.7.8 1.7-4 2l1.3-4-6.7.9s-.9.6-2.7 3.2c2.5-2.4 3.1-2.2 4.1-2 .1.2.1.4.2.6-.4.3-1 .6-1.5.7.4.2.8.6 1.1.9v.7c.7.3 1.3.7 2 1.1.4-.2.9-.6 1.2-.9.1 0 .4 0 .5.1.1.2.1.4.1.6-.8 1-1.4 1.4-4 2.2-.3-.5-.2-1.2-.4-1.8-.2.1-.5.3-.7.4h-.1v.6l-5.5 4.4c-6.1 10.8-6.1 10.8-5.6 15.2-1.2-.2-1.2-.2-2.1-4.6-.9-.6-1.9-.6-2.9-.5-.7 0-1.4 0-2.1-.2-.1.1-.4.2-.6.4v.6c-.2.1-.2.1-4.1-.2a3.38 3.38 0 0 0-.7 1.1c-2.8.8-2.1 7.3-.6 8.9 1.3 1.3 2.5.3 3.7-.8 1.2-1 2.4-2 3.8-.9-.3.9-1 3.1-1.2 4.9.8.2 1.6.2 2.4.2.5-.1 1.1-.1 1.6 0 1 1.8-1 5.1 1.7 5.9 2.3-1.2 2.4-1.3 3.9.2.7-.2.9-.3 1.2-1.9 10-3.1 19.2 4.4 21.9 9.1 3.6.9 6.3 3.8 10 4.5.2 1 .1 1.8-.1 2.3l-6.3 10.9c-1.5 1.7-4.5.7-5.5 3.2q-.4 1-.7 1.6v.1l-.1.1v.1.1h-.1v.1.1h-.1v.1.1h-.1v.1.1h-.1v.1l-.1.1v.1l-.1.1v.1q-.1.1-.2.2v.1h-.1v.1h-.1v.1l-.1.1-.1.1-.1.1-.1.1v.1h-.1v.1h-.1l-.2.2-.1.1v.1h-.1v.1h-.1l-.1.1v.1h-.1l-.1.2h-.1v.1h-.1v.1h-.1l-.1.1c-.3.3-.6.6-.8.7-.9.8-2.1.7-3 1.2v.6c.1.1.4.1.6.2-.7 2.4-3.7 2.1-4.7 4h-.1-.1-.1-.1-.1-.1-.1-.1v-.1h-.1-.1-.1v-.1h-.1c-.1.1-.2.4-.3.5.2.3.5.7.8.9-.3.3-.8.5-1.2.6-.1.3-.3.8-.4 1.1-.4.2-.8.5-1 .8.1.4.5.8.8 1 0 .2.1.4.1.6l-.1.1-.1.1v.1h-.1v.1h-.1v.1h-.1v.1h-.1v.1h-.1v.1l-.2.2-.1.1v.1c-1.6 1.8-1.8 2.4-.8 3.6v.1h.1v.1h.1v.1h.1v.1h.1v.1l.1.1.1.1.1.1h.1v.1l.1.1h-.1q-.2.1-.3.1h-.1q-.2 0-.3 0h-.1v.1h-.1-.1-.1l-.1-.1h-.1-.1-.1-.1q-.1 0-.2 0l-.1-.1h-.1-.1-.1v-.1h-.1-.1v-.1h-.1-.1v-.1h-.1v-.1h-.1q0 0-.1-.1h-.1v-.1h-.1v-.1h-.1v-.1h-.1v-.1l-.1-.1v-.1h-.1v-.1h-.1v-.1-.1h-.1v-.1-.1q-.1 0-.1-.1v-.1h-.1v-.1-.1-.1-.1h-.1v-.1-.1-.1-.1-.1h-.1v-.1-.1-.1-.1-.1-.1-.1-.1-.1-.1-.1-.1-.1-.1-.1-.1-.1-.1-.1-.1-.1l.1-.1v-.1-.2-.1l.1-.2c.3-1.7.8-3.3.8-4.9v-.1-.1-.1-.2c-.2.4-.6.9-.9 1.1v-.2l.1-.1v-.2l.1-.2v-.1l.1-.2v-.1-.2l.1-.2v-.1l.1-.2v-.1-.1-.1l.1-.2v-.1-.2l.1-.2v-.1-.2h.1v-.1-.1-.1-.2l.2-.6v-.2-.1-.1l.1-.1v-.2l.1-.5v-.3l.1-.3v-.2l.1-.5.1-.3v-.2l.1-.5v-.1-.2l.1-.6v-.1l.1-.1v-.3l.1-.2.1-.5v-.3l.1-.2v-.2c1.6-7.3 1.6-7.3-3.1-11.6-.2-.2-5.4-5.1-4.2-9.8-2.2-3.6 4.9-6.6 1.4-9.5-.2.1-.2.1-1.7 1.2 0 0-3-2.1-4.2-2.7v-.7c-1.9-1.1-4-1.8-5.7-3.3h.1c-7.5-2.4-8.1-2.6-10.4-4.6 0 0-4.8-9.5-5.9-11-.2.1-.3.3-.5.4 0 .1 1.4 4.4 3.2 7 0 .2-.1.4-.2.6-1.7-1.2-2.2-3.3-3.8-4.6.2 0 .4-.1.6-.2 0 0-.8-4.5-2.7-6.1-3-2.4-3-2.4-.7-14.5.4-.1 1-.2 1.4-.4-.5-2.2-.5-2.2-2.3-2.8-1.6-9.7-1.6-9.7-3.9-12.2-.4.8-.7 1.3-3.2 2.7.3-.8.3-.8 1.1-1.8-3 2.1-5.2 5.3-8.7 6.8 2.8-2.1 3.2-2.5 4.8-4.1-.1-.2-.1-.5-.1-.8-.2 0-.4-.2-.5-.3a3.79 3.79 0 0 1 .6-1.3c-.2.1-.4.1-.6.1 1-2.7 5.1-2.7 5.5-5.9-.1 0-.4.1-.5.2l-.6-.3c.3-.4 1.1-1.9 3-2.3l-.3.6c3.6-1.6 4.7-7 9.8-6.6 0 .1-.1.4-.1.6 1.1.3 1.6.6 1.9.9v.1h.1v.1h.1v.1.1.1h-.1v.1.1.1q-.1.4-.1.7.2 0 .3 0h.1l.1-.1h.1q.2-.1.4-.2h.1.1q.2-.2.4-.3h.1q.3-.2.6-.4h.1l.1-.1q.1 0 .3-.1l.1-.1q.2-.1.3-.2h.1q.1 0 .2-.1h.1q.1 0 .2-.1h.1.1.1.1.1l.1-.1h.1.1.1.1.1v.1h.1.1c-.1.4-.2.9-.2 1.2h.1v-.1h.1.1V13h.1v-.1h.1.1v-.1h.1.1q.2-.1.3-.2h.1q.1 0 .2 0 .1 0 .1 0 .2 0 .3.1h.1q.2.1.6.3h.1l.2.1.1.1.2.1h.1l.1.1.1.1.1.1h.1.1v.1h.1l.1.1h.1l.1.1c-.3.3-.6.7-.8.9q.1 0 .1 0 .1 0 .3 0h.1.1.1.1l.1-.1h.2.1.1.1v-.1h.1.1.1.1.1v-.1h.1.1.1.1.1l.1-.1h.1.1.1l.2-.1h.1.1.1.1l.1-.1h.1.2.1l.1-.1h.1.1.1.1l.1-.1h.1.1.1v.1.1h.1v.1h.1v.1l.1.1.1.1.1.1h.1v.1h.1l.1.1h.1v.1h.1.1.1.1q.1 0 .1 0h.1.1.1.1.1.1.1v-.1h.1.1.1l.1-.1.2-.1h.1l.1-.1h.1l.1-.1h.1v-.1c-.1-1.3.1-1.8 1.2-1.9.3.6.1 1.2.3 1.8 1.3-1 1.2-1.4.5-2.3.1-1 .5-1.6 1.5-2.5l.1.1c0 .8 0 .8-.2 2.9l.6.3c0 .4 0 .9-.1 1.2.3-.2.7-.6.9-.9.2.9.2 1.1-.2 2.1.1.1.3.3.5.4 0 0 1.4-1.4 1.6-3.1l.6-.3c.3.2.8.5 1 .8 0 .4-.1 1-.3 1.4q0 0 .1.1v.1.1.1h.1v.1.1l-.1.1v.1.1.1.1h-.1v.1.1h-.1v.1l-.1.1v.1H96l-.1.1v.1h-.1v.1h-.1l-.1.1-.1.1h-.1v.1h-.1v.1h-.1l-.1.1H95l-.1.1q-.1.1-.2.1l-.1.1h-.1q-.1.1-.2.1h-.1l-.1.1H94l-.1.1h-.1l-.1.1h-.1-.1q-.2.1-.3.1l-.1.1h-.2-.1q-.3.1-.5.1h-.1q-.1 0-.2 0h-.1q0 0-.1 0l.3.6h.6c0 .2 0 .4.1.6l-.1.1-.1.1-.1.1-.1.1v.1h-.1v.1h-.1v.1h-.1v.1l-.1.1h-.1v.1l-.2.1v.1zm44.6-10.3c-2.8-1.7-4.7-2.7-6.5-3.5q3.4 1.6 6.5 3.5zm-4.7 7.9c.2.2.6.9.5 1-.1 0-.1 0-.1.6 0 .4-.1 1-.7.9-.6 0-1-.5-1.6-.5-.4 0-.4 0-.5-.1-.2 0-.1-.2-.1-.2.1-.2.3-.6-1.1-1.1.8 0 .2-.6.1-.7-.1-.2-.3-.1-.5-.1-.3 0-.5 0-.6-.1 0-.1-.2-.5.1-.6a1.75 1.75 0 0 0 .5.1c-.5-.3-1.1-.8-.6-.9.5.3.6.4.9.9.2.3.4.4.5.4h.2v-.1c.1-.1.1-.2.2-.3 0-.1 0-.1.3-.3.4-.2 1.3-.7 2.5 1.1zm16.2 15.3c.5 1.7.5 1.7.8 2.1q.4.3-.2.3c-1.8.1-2.4.8-2.6 1.1.2-1.4.2-1.5.3-1.6l-.9-1.2c.1 0 .2.1.3-.1 0-.4-.4-.6-.4-1 0-.2 0-.2.3-.4 0 0-.5-1.6-1.5-1.3l-.2-.2c-.3-.5-.4-1.1-.8-1.6-.1-.2-.1-.2-.4-.3s-.4-.2-.6-.7c-.7-1.5-.9-1.8-.3-2.1q.5.5.6 1.3c.1.2.1.3.2.3.3.3.5-.5.8-.2.1.2.2.5.4 1.1.2.8.3 1.2.7 1h.1c.3.4.5.8.8 1.1.4.5.9.8 1.2 1.2s.6.9.7 1.2q.3 0 .7 0zm-4.3-1.8c.1.2 0 .5 0 .7.1.2.2.3.3.5q.4.8.4 1.2v.3c-.1.2-.4.2-.5.4s0 .4 0 .6h-.1c-.1 0-.5-.4-.6-.6-.1-.1-.1-.2-.1-.3.1-.9-.1-1.4-.1-1.4h-.2c-.1.1-.3.4-.7-.5-.2-.3 0-.4.1-.4.2-.1.5 0 .6-.2-.1-.4-.5-.6-.6-1s.1-.4.2-.4c.4 0 1.2.6 1.3 1.1zM166.5 60c-.4-1.6-.9-2.9-1.3-3.5.4.6.8 1.9 1.3 3.4zm2.3 14q0-.5 0-1 0 .1-.1.2.1.2.1.4v.4zm-69 50.4q-.1 0-.2 0 .1 0 .2 0 .1 0 .2 0-.1 0-.2 0zM68.1 54.8zm0 0zm0 0zm0 0zm-.1 0h.1zm0 0h-.1zm0 0zm0 0zm0 0zm0 0zm0 0zm0 0h-.1zm0 0zm0 0zm0 0zm0 0zm0 0zm0 0zm0 0zm0 0zm0 0zm0 0zm0 0zm0 0zm0 0zm0 0zm0 0zm0 0zm0 0zm0 0zm0 0zm0 0zm0 0zm0 0zm0 0zm0 0zm-.1 0zm0 0zm0 0zm0 0zm0 0zm0 0zm0 0zm0 0zm-.1.1v-.1zm0 .1v-.1zm0 .1V55zm0 .1v-.1zm0 .1v-.1zm0 0v.1zm0 0zm0 0zm0 0zm0 0zm0 0zm0 0zm0 0zm0 0zm0 0h-.1zm0 0zm0 0zm0 0zm0 0zm0 0h-.1zm21.5 12.9zm0 0zm0 0zm0 0h-.1zm0 0zm0 0v.1zm0 0zm0 0zm0 0zm0 0h-.1zm0 .1zm0 0zm0 0zm0 0zm0 0v.1zm0 0h-.1zm0 0zm0 0zm0 0zm0 0v.1zm0 0zm0 0h-.1zm0 0zm0 0zm0 .1zm0 0zm0 0zm-.1 0zm0 0zm0 .1zm0 0zm0 0zm73.7-18.1q0 0 0 0z"/><path d="M44.9 176.9l-20.8-13.4c-11.3-7.2-8.7-6.3-12.6-14.4-3.7-7.4-6.2-13.8-9.4-20.6-1.9-4.3-2-5-1.3-12 .6-6.9.7-14.5.6-23.9-.1-4.7 3.1-5.9 5.7-2.1 1.9 2.8 2.9 6.9 3.3 11.9.5 5.1-.1 7.4 1.6 15.2-3.8 1-5.5 4.7-2 9.7 3.2 4.4 5.8 9 9.4 12.8 6.4 6.6 12.8 14.5 18.9 22.4-4.2-7.4-9.9-15.7-14.8-20.6-4.3-4.2-7.3-8.9-10.6-13.3-1.8-2.4-5.1-5.7-2.2-8.8 2-2 4.9-.6 7.2.3 5.8 2.5 11 7.6 16.3 15 5 6.8 9.3 7.9 14.8 8.1 10 .4 16.8 5.2 22.9 10.3 9.6 8.2 14 16 14.5 25.7l-.5 18.3H55.3l.1-5.2c.2-8.2-1.4-9.5-10.5-15.4zM17.8 99.2c.3 6.8.2 12.3 1.8 20.4q-.6-.3-1.3-.6l-.3-.1a157.25 157.25 0 0 1-1.2-9.6c-.2-2.6-.2-5.1-.2-7.6q0-2.3 0-4.6c.7-.1 1.1.6 1.2 2.1zm-2.5-3.6c.1 7.5-.3 13.4 1.5 22.8 0 0-1.2-.4-1.6-.6v-.3c-.6-3.9-1.1-7.8-1.2-11.7-.1-2.6-.1-5.1 0-7.6q.1-2.3.1-4.6c.7-.1 1.1.6 1.2 2zm3.3 26.8c-3-2-5.6-3.4-7.3-1.2-1.3 1.6-.3 3.4 1.5 5.7 3.2 4 5.3 3.8 7.3 1.5 1.6-2 1.9-3.8-1.5-6zm62.5 50.3c-4.4-13.1-13.1-21.5-26.2-25.3 11 5.8 19.7 14.3 26.2 25.3zm-67.9-55.2l-1.1-6.3c-.1-1.5-.2-2.9-.2-4.4-.1-1.5-.1-3-.3-4.6-.4-4.4-1.3-10.2-4.5-13.6-.5-2.7.5-5.2 1.9-5.3 3.8-.2 4 4.4 4.1 7.1.3 9.1-1.1 12 1.1 27.2q-.5 0-1-.1zm131.4 74.8l.1 5.2h-30.6l-.5-18.3c.5-9.7 4.9-17.5 14.6-25.7 6-5.1 12.8-9.9 22.8-10.3 5.5-.2 9.8-1.3 14.8-8.1 5.4-7.4 10.5-12.5 16.4-15 2.2-.9 5.2-2.3 7.1-.3 2.9 3.1-.4 6.4-2.2 8.8-3.3 4.4-6.3 9.1-10.6 13.3-4.9 4.9-10.6 13.2-14.8 20.6 6.1-7.9 12.5-15.8 18.9-22.4 3.6-3.8 6.3-8.4 9.4-12.8 3.5-5 1.8-8.7-2-9.7 1.7-7.8 1.1-10.1 1.6-15.2.5-5 1.5-9.1 3.4-11.9 2.5-3.8 5.7-2.6 5.6 2.1-.1 9.4.1 17 .7 23.9.6 7 .5 7.7-1.4 12-3.1 6.8-5.7 13.2-9.4 20.6-3.9 8.1-1.3 7.2-12.6 14.4l-20.8 13.4c-9.1 5.9-10.7 7.2-10.5 15.4zm38.9-95.2q-.1 2.3-.1 4.6c0 2.5 0 5-.2 7.6-.2 3.2-.7 6.4-1.2 9.6l-.3.1q-.6.3-1.3.6c1.6-8.1 1.5-13.6 1.8-20.4.1-1.5.5-2.2 1.3-2.1zm2.4-3.5q0 2.3.1 4.6c.1 2.5.1 5 0 7.6-.1 3.9-.6 7.8-1.1 11.7l-.1.3c-.4.2-1.6.6-1.6.6 1.8-9.4 1.5-15.3 1.5-22.8.1-1.4.5-2.1 1.2-2zm-40.7 53.8c-13.1 3.8-21.9 12.2-26.3 25.3 6.6-11 15.2-19.5 26.3-25.3zm34.8-19c1.9 2.3 4 2.5 7.2-1.5 1.9-2.3 2.8-4.1 1.5-5.7-1.7-2.2-4.3-.8-7.3 1.2-3.4 2.2-3.1 4-1.4 6zm5.8-10.8c2.2-15.2.8-18.1 1.1-27.2.1-2.7.4-7.3 4.2-7.1 1.4.1 2.3 2.6 1.8 5.3-3.2 3.4-4.1 9.2-4.5 13.6-.2 1.6-.2 3.1-.3 4.6 0 1.5-.1 2.9-.2 4.4-.3 2.1-.6 4.2-1.1 6.3q-.5.1-1 .1z"/></g></svg>