<svg xmlns="http://www.w3.org/2000/svg" width="300" height="181" xmlns:v="https://vecta.io/nano"><g fill-rule="evenodd"><path d="M150 0c9.4 0 18.1 3.2 24.9 8.6q.3.2.7.5c-.6-.4-1-.8-1.6-1.2l3.3 3c-.2-.1-.2-.1-.8-.5.3.3.7.5 1 .9-1.1-.6-1.9-1.6-2.9-2.3q.5.3 1 .5c-.3-.8-3.6-2.7-4.9-3.1 0 .7 5.2 9.1 6.2 9.2v-.7c1 .6 1.4 1.7 2.2 2.5.2-.5.2-.5-.8-2.3q0-.6-.2-1.1.4.1 1 0l.3.3c-.2.1-.4.2-.5.3.3.6.9 1 1.3 1.6v.2c-.1-.2-.3-.4-.5-.5 0 .5.5 1.1.8 1.6.1.2.1.4.2.6-.2-.1-.4-.2-.5-.3 0 .2-.1.4-.1.6-.9 0-.9 0-2.5-2.5-.1.2-.1.5 0 .7.1.7.9 1 1 1.6.2.6-.2 1.1-.1 1.7-.5.6-.2 1.9-1.3 2-.1.1-.1.2-.1.3.6 1 2.3 1.4 1.9 3q-.4.1-.9.1-.4-.1-.8 0c-.1.1-.1.2-.2.3.1.6.4 1.3.5 1.9-.1.2-.1.5-.1.6.1.1.3.2.4.3q0 .3.1.7c.5.1.6.1 1 .6.4-.1.8-.4 1.2-.4.5-.8-.1-1.9.5-2.7 0-.5-.1-.8-.2-1.1q.3 0 .6 0 .2 0 .5 0a.76.76 0 0 1 .2-.4c.3.1 2.4 2.5 2.5 3.2-.1.1-.4.3-.5.3.2.3.5.7.8.9-.2-.6.3-1.4-.3-2h.3c-.2-.5-.7-.8-.8-1.3-.9-.4-1.4-2-1.4-2 .1 0 .2 0 .3-.1 1.1 1.7 1.9 3.6 3.2 5.2.2-.3.2-.3.5-.5-.3-.3-.5-.5-.9-1.2q.1-.1.2-.3s-.1-.2-.1-.3c1.2.5 1 1.8 1.5 2.7.2-.1.2-.4.2-.6.1.2.2.5.4.6l.2-.2c.4.5.8 2.6.4 3.1q-.1 0-.3-.1l-.1-.1c-.4-.1-.7-.1-1.5-.8q-.1.1-.3.1c.1.4.1.8.1 1.2-.1 0-.3 0-.4-.1-.2-.1-.4-.3-.5-.5-.4-.5-1.1-.5-1.5-1-.3-.6-.1-1.2-.3-1.8-.3-.7-2.5 0-2.7.3-.3.5-.7.7-1.6.2-.2.3-.3.6-.4.9h-.1l-2.7 7c.8 1.1.7 1.7.3 3-.8 2.4 2.9 5.9 2.9 6 .8-.3 1-.4 1.8-.3 1.6-1.3 2.1-.6 2.2.2.3.1.3.1.8-.1l-.5 7.4q0 0-.2.5v.2h-.1v.2l-.1.2v.2l-.2.5-.1.1v.2l-.1.1v.1l-.1.2v.1l-.2.4v.1.1l-.2.5v.1q-.3.8-.7 1.7v.1.1l-.1.1v.1.1l-.1.2-.1.1v.2l-.1.1v.1l-.1.2v.1l-.1.1v.1.1l-.1.1v.1l-.1.1q-.2.8-.5 1.4l-.2.4-.1.3v.1l-.1.1v.1l-.1.1v.1.1h-.1v.1l-.1.1v.2h-.1v.1q.1 0 .2 0 .1 0 .2 0 .1 0 .2 0 .1 0 .2-.1.1 0 .2 0 .1-.1.2-.1.1-.1.2-.1.1-.1.2-.1.2-.2.4-.3.2-.2.4-.4h.1q.1-.1.2-.2c1.4-1.3 2.9-3.5 4.2-6.2q.5-.9.9-1.9c.7-1.5 1.3-3 1.8-4.6.7-2.2 1.2-4.4 1.4-6.4-1.9 20.6-19.3 36.7-40.4 36.7-22.5 0-40.7-18.2-40.7-40.6S127.5 0 150 0zm25.8 11.3c-.9-1-.9-1-1.2-1.4.8.4 1.2 1.2 1.6 2.1q-.2-.4-.4-.7zm10.6 17.5zM176.2 12c.6.7 1.5 1.2 1.9 2-1-.2-1.4-1.1-1.9-2zm1.4 7.2q-.2 0-.4 0c-.1-.2-.2-.4-.4-.7-.2-.2-.5-.4-.7-.7-.2-.2-.3-.4-.5-.6-.3.1-.3-.2-.5-.6-.1-.4-.1-.5-.2-.7-.1-.1-.3.3-.5.2v-.2q-.1-.5-.4-.8c-.3.2-.3.4.2 1.3.1.2.1.3.3.4.2 0 .2 0 .2.1.3.3.3.7.5.9l.1.2c.6-.2.9.7.9.8l-.2.1c.1.3.2.4.3.7h-.2l.5.7c0 .1 0 .1-.2.9.2-.1.5-.5 1.5-.6q.4 0 .2-.2c-.2-.2-.2-.2-.5-1.2zM190 33.7q.2 1.1.3 2.2c-.1-1-.4-2.3-.4-2.3l.1-.3zm.5 7.3q0 1 0 2c-.1.2-.1.4-.2.6-.3-.4-.3-.8-.2-1.2q0 .1 0 .2 0 .1 0 .2 0-.3 0-.6c.1-.4.3-.8.4-1.2zM155.3 6.1c.4.5 1.2.4 1.5 1 0 0 .2.6-.1.7s-.3.3-.1 1v.1h.1V9v.1.1h.1v.1.1h.1v.1.1l.1.1q.1.2.3.5v.1l.1.1q.1.2.2.3l.1.2.1.1v.1h.1v.1l.1.1a27.29 27.29 0 0 0 1.5 2.1c.2.2.3.2.8.1.4 0 .4.5.7.6.3.2.7.4.8-.1 0-.3-.1-.7-.3-1.3 0-.1-.1-.3-.1-.5-.1-.2.2-.3.2-.5 0-.3-.4-.6-.4-.9q0-.2.1-.3v-.1h.1v-.1h.1v-.1h.1v-.1h.1q.1-.1.2-.1v-.1q.1 0 .1-.1 0 0 .1 0v-.1-.1c.2-.6.2-.6 0-1.5h.1.1.1.1.1q.1 0 .2 0 0 0 0 0h.1q0 0 .1-.1 0 0 0 0h.1q0-.1.1-.1 0 0 0-.1h.1v-.1q0 0 0 0v-.1h.1v-.1q0-.1 0-.1v-.1q0-.1 0-.2V7v-.1-.1c-.6-1.2-1.8-1.7-2.7-2.6l.1-.1c-.2-.2-.5-.6-1-.9h-.1v-.1h-.2V3h-.1l-.8-.4c-1.3-.8-1.3-.8-1.4-.8l.1-.1c-.4-.2-3.1-1.2-4.7-1.5h-.1-2c0 .1.1.1.1.3-.4 0-.5.3-.4.4 0 .4.4.3.5.6h-.3c0 .2.1.2.2.3h.1.1v.1c.1.1.1.3.6.5l.1-.1v-.1h.1q0 0 .1 0 .1 0 .2 0 .2.1.5.2.4.2.7.4.5.3.9.8h.1v.1q.2.2.3.4.1.1.2.3 0 .1 0 .2h.1v.1.1.1.1c.1.6.4.7.5.7v-.5c1.1 1 1.2 1.1 1.2 1.2h-.1-.1-.1-.1v-.1h-.1v-.1h-.1-.1v-.1h-.1q-.1 0-.1 0 0 0-.1 0 0 0-.1 0 0 0 0 0zm-10.2 5.4v-.1h.1v-.1l.1-.1h.1v-.1h.1V11h.1v-.1h.1v-.1-.3c-.1-.1-.3-.1-.4-.1 0-.1-.1-.2-.2-.3h.1q0 0 0 0h.1q0 0 .1 0 .2 0 .3 0l.1-.1h.1.1q0 0 .1-.1h.1.1.1v-.1h.1.1q0-.1.1-.1h.1v-.1q.1 0 .1 0h.1v-.1h.1l.1-.1h.1v-.1h.1v-.1h.1l.1-.1V9h.1v-.1l.1-.1v-.1-.1h.1v-.1-.1-.1h-.1v-.1q0-.1 0-.1c.1-.2.1-.5.2-.8-.2-.1-.4-.3-.7-.4-.1 0-.2.1-.3.1-.1 1-.9 1.8-.9 1.8-.1-.1-.2-.2-.3-.2.2-.6.2-.7.1-1.2-.1.2-.3.4-.5.5 0-.2.1-.5 0-.7-.1-.1-.2-.1-.3-.2.1-1.2.1-1.2.1-1.7h-.1c-.5.5-.7.9-.8 1.4.4.6.5.8-.3 1.4-.1-.4 0-.7-.2-1.1-.6.1-.8.4-.7 1.1v.1h-.1-.1v.1h-.1-.1v.1h-.1-.1-.1v.1h-.1-.1-.1q-.1 0-.1 0h-.1-.1v-.1h-.1-.1v-.1h-.1v-.1h-.1v-.1h-.1V8v-.1h-.1-.1-.1-.1V8h-.1-.1-.1-.1-.1v.1h-.1-.1-.1-.1-.1v.1h-.1-.1-.1-.1-.1l-.1.1h-.1-.1-.1-.1-.1v.1h-.1q-.1 0-.2 0 0 0-.1 0c.2-.2.4-.4.5-.6h-.1v-.1h-.1-.1v-.1h-.1l-.1-.1h-.1l-.1-.1-.2-.1q-.2-.1-.4-.2-.1 0-.2 0 0 0-.1 0 0 0-.1 0-.1 0-.2.1h-.1-.1v.1h-.1v.1h-.1-.1v.1c0-.3.1-.6.2-.8h-.1-.1-.1-.1-.1-.1-.1-.1v.1q-.1 0-.2 0-.1 0-.1.1-.1 0-.2.1h-.1q-.1.1-.2.1l-.1.1q-.2.1-.4.2-.1.1-.2.1h-.1v.1q-.1 0-.3.1h-.1q-.1 0-.2 0 0-.1 0-.4v-.1h.1v-.1V7h-.1v-.1h-.1c-.1-.2-.4-.4-1-.6v-.4c-2.9-.2-3.6 3-5.7 3.9.1-.1.1-.2.2-.3-1.1.2-1.6 1-1.8 1.3.1.1.3.1.4.2.1-.1.2-.1.3-.2-.3 1.9-2.6 1.9-3.2 3.5.1 0 .2 0 .3-.1-.1.3-.3.6-.3.8a1.44 1.44 0 0 0 .3.2v.4c-.9 1-1.1 1.2-2.8 2.4 2.1-.9 3.3-2.7 5.1-4-.5.6-.5.6-.6 1.1 1.4-.8 1.6-1.1 1.8-1.6 1.3 1.5 1.3 1.5 2.3 7.1 1.1.3 1.1.4 1.3 1.6-.2.1-.5.2-.8.2-1.3 7.1-1.3 7.1.4 8.5 1.1.9 1.6 3.5 1.6 3.5-.1.1-.3.1-.4.2 1 .7 1.3 1.9 2.3 2.6 0-.1.1-.2.1-.3-1.1-1.5-1.9-4.1-1.9-4.1.1-.1.2-.2.3-.2.7.8 3.5 6.3 3.5 6.4 1.3 1.1 1.6 1.2 6 2.7.9.8 2.2 1.2 3.2 1.9.1.1.1.2.1.4.7.3 2.4 1.5 2.4 1.5.9-.6.9-.6 1-.7 2.1 1.7-2.1 3.5-.8 5.5-.7 2.8 2.3 5.6 2.4 5.7 2.8 2.5 2.8 2.5 1.8 6.8v.1.1.2l-.1.3v.1.1.1h-.1v.1.3.1l-.1.1v.3.1l-.1.2v.3.1l-.1.2v.1.1.2l-.1.1v.1.1.1l-.1.4v.1.1.1l-.1.1v.1.1.1.1h-.1v.1.1.1l-.1.1v.1.1.1l-.1.1v.1.1.1l-.1.1v.1c.2-.2.5-.4.6-.6v.1.1c0 1-.4 1.9-.5 2.8l-.1.2v.1.1.1.1.1.1.1.1.1.1.1.1.1.1.1.1.1.1h.1v.1.1.1q.1 0 .1.1v.1h.1v.1l.1.1v.1h.1v.1h.1v.1h.1q0 0 0 0l.1.1h.1v.1h.1.1v.1h.1.1q.1 0 .1 0h.1.1.1v.1h.1l.1-.1h.1q0 0 .1 0h.1q.1 0 .1 0h.1v-.1h-.1v-.1h-.1v-.1h-.1v-.1h-.1v-.1h-.1V74c-.6-.7-.5-1.1.4-2.1l.1-.1.1-.2h.1v-.1h.1v-.1h.1v-.1h.1v-.1-.4c-.2-.1-.4-.3-.5-.5.1-.2.4-.4.6-.5.1-.2.2-.4.2-.6.3-.1.6-.2.7-.4-.1-.1-.3-.3-.4-.5 0-.1.1-.2.1-.3h.1.1v.1h.1.1.1.1.1c.6-1.1 2.4-.9 2.7-2.3-.1 0-.2-.1-.3-.1v-.4c.6-.3 1.3-.2 1.8-.6.1-.2.3-.3.4-.4l.1-.1v-.1h.1V64h.1l.1-.1v-.1h.1l.1-.1.1-.1.1-.1.1-.1.1-.1v-.1h.1v-.1h.1V63q.1-.1.1-.1v-.1h.1v-.1-.1h.1v-.1-.1h.1v-.1-.1h.1v-.1-.1q.2-.3.4-.9c.6-1.4 2.4-.9 3.2-1.9l3.7-6.3c.1-.3.2-.7.1-1.3-2.2-.4-3.7-2.1-5.8-2.7-1.6-2.7-7-7-12.8-5.3-.2 1-.3 1-.7 1.2-.9-.9-1-.8-2.3-.1-1.6-.5-.4-2.4-1-3.5q-.4 0-.9 0c-.5 0-.9 0-1.4-.1.1-1 .5-2.3.7-2.8-.8-.7-1.5-.1-2.2.5s-1.4 1.2-2.2.5c-.9-1-1.3-4.8.4-5.2 0-.2.2-.5.4-.7l2.3.2c0-.1.1-.3.1-.4.1-.1.2-.2.3-.2.4.1.8.1 1.3.1s1.1 0 1.6.3c.6 2.6.6 2.6 1.3 2.7-.3-2.6-.3-2.6 3.2-8.9l3.2-2.6v-.3h.1a.76.76 0 0 0 .4-.2c.1.3 0 .7.2 1.1 1.5-.5 1.9-.7 2.4-1.3 0-.1-.1-.3-.1-.4-.1 0-.2-.1-.3-.1-.2.2-.4.5-.7.6q-.6-.4-1.2-.7c0-.1 0-.2.1-.4a3.04 3.04 0 0 0-.7-.5c.3-.1.6-.2.9-.4-.1-.1-.1-.2-.1-.3-.6-.2-1-.3-2.5 1.1 1.1-1.5 1.7-1.8 1.7-1.9l3.8-.5-.7 2.4c2.8-.2 2.8-.2 2.3-1.2h-1.2l.1-2.4c-.1-.1-4.1-4.9-4.4-5-.3 1.1-.3 1.1-.9 1.2-.1-.2-.4-.3-.6-.4l-.3-1.5c-1-.2-1.9-.9-2.9-1.1l-.3.3c.1 1.8.1 1.8-.3 2.4.8 1.3.8 1.3.7 2.1-1.2.7-.5 2.1-1 3h-.5c-.9-.7-.9-.7-.8-2.5-1.1 0-1.4.1-3.9-1.6.1-.2.2-.5.2-.8l-.2-.2c-.3 0-.6-.1-.8-.2 0-.4 0-.5 2.6-3.2zm21.6-1.7c-.2.1-.2.1-.2.2-.1 0 0 .1-.1.2h-.1c-.1 0-.2-.1-.3-.2-.2-.3-.2-.3-.5-.5h-.1c-.2 0 .1.3.4.5-.2-.1-.3-.1-.3-.1-.2.1-.1.3 0 .3 0 .1.1.1.3.1.1 0 .2 0 .3.1.1 0 .4.4 0 .4.8.3.6.5.6.6 0 0-.1.1 0 .2h.3c.4 0 .6.3.9.3.4 0 .5-.3.4-.5 0-.4 0-.4.1-.4s-.2-.4-.3-.6c-.7-1-1.2-.7-1.4-.6zm7.6 7.9s-.1 0-.1.2c.1.2.3.3.4.6-.1.1-.3 0-.4.1 0 0-.1.1 0 .2.2.5.3.4.4.3h.1s.1.3 0 .8q0 .1.1.2c0 .1.3.3.4.4v-.1-.3c.1-.1.2-.1.3-.2v-.2q0-.2-.3-.7c0-.1-.1-.2-.1-.3v-.4c-.1-.3-.5-.6-.8-.6zm-24.4 54.4q0 0-.1 0 .1 0 .1 0 .1 0 .1 0 0 0-.1 0z" fill="#0e3e83"/><path d="M190.1 42.5q0-.1 0-.2c-.1.4-.1.8.3 1.3 0-.3.1-.5.2-.8-.1 2.5-.7 5.3-1.6 8.1-.5 1.6-1.1 3.1-1.8 4.6q-.4 1-.9 1.9c-1.3 2.7-2.8 4.9-4.2 6.2q-.1.1-.2.2h-.1q-.2.2-.4.4-.2.1-.4.3-.1 0-.2.1-.1 0-.2.1-.1 0-.2.1-.1 0-.2 0-.1.1-.2.1-.1 0-.2 0-.1 0-.2 0-.1 0-.2 0v-.1h.1v-.2l.1-.1v-.1h.1v-.1-.1l.1-.1V64l.1-.1v-.1l.1-.3.2-.4q.3-.6.5-1.4l.1-.1v-.1l.1-.1v-.1-.1l.1-.1V61l.1-.2v-.1l.1-.1v-.2l.1-.1.1-.2V60v-.1l.1-.1v-.1-.1q.4-.9.7-1.7v-.1l.2-.5v-.1-.1l.2-.4v-.1l.1-.2v-.1l.1-.1V56l.1-.1.2-.5v-.2l.1-.2v-.2h.1v-.2q.2-.5.2-.5c.1-.3.5-7.4.5-7.4-.5.2-.5.2-.8.1-.1-.8-.6-1.5-2.2-.2-.8-.1-1 0-1.8.3 0-.1-3.7-3.6-2.9-6 .4-1.3.5-1.9-.3-3l2.7-7h.1c.1-.3.2-.6.4-.9.9.5 1.3.3 1.6-.2.2-.3 2.4-1 2.7-.3.2.6 0 1.2.3 1.8.4.5 1.1.5 1.5 1 .1.2.3.4.5.5.1.1.3.1.4.1 0-.4 0-.8-.1-1.2q.2 0 .3-.1c.8.7 1.1.7 1.5.8l.1.1q.2.1.3.1c.4-.5 0-2.6-.4-3.1l-.2.2c-.2-.1-.3-.4-.4-.6 0 .2 0 .5-.2.6-.5-.9-.3-2.2-1.5-2.7 0 .1.1.3.1.3q-.1.2-.2.3c.4.7.6.9.9 1.2-.3.2-.3.2-.5.5-1.3-1.6-2.1-3.5-3.2-5.2-.1.1-.2.1-.3.1 0 0 .5 1.6 1.4 2 .1.5.6.8.8 1.3h-.3c.6.6.1 1.4.3 2-.3-.2-.6-.6-.8-.9.1 0 .4-.2.5-.3-.1-.7-2.2-3.1-2.5-3.2a.76.76 0 0 0-.2.4q-.3 0-.5 0-.3 0-.6 0c.1.3.2.6.2 1.1-.6.8 0 1.9-.5 2.7-.4 0-.8.3-1.2.4-.4-.5-.5-.5-1-.6q-.1-.4-.1-.7c-.1-.1-.3-.2-.4-.3 0-.1 0-.4.1-.6-.1-.6-.4-1.3-.5-1.9.1-.1.1-.2.2-.3q.4-.1.8 0 .5 0 .9-.1c.4-1.6-1.3-2-1.9-3 0-.1 0-.2.1-.3 1.1-.1.8-1.4 1.3-2-.1-.6.3-1.1.1-1.7-.1-.6-.9-.9-1-1.6-.1-.2-.1-.5 0-.7 1.6 2.5 1.6 2.5 2.5 2.5 0-.2.1-.4.1-.6.1.1.3.2.5.3-.1-.2-.1-.4-.2-.6-.3-.5-.8-1.1-.8-1.6.2.1.4.3.5.5v-.2c-.4-.6-1-1-1.3-1.6.1-.1.3-.2.5-.3l-.3-.3q-.6.1-1 0 .2.5.2 1.1c1 1.8 1 1.8.8 2.3-.8-.8-1.2-1.9-2.2-2.5v.7c-1-.1-6.2-8.5-6.2-9.2 1.3.4 4.6 2.3 4.9 3.1q-.5-.2-1-.5c1 .7 1.8 1.7 2.9 2.3-.3-.4-.7-.6-1-.9.6.4.6.4.8.5l-3.3-3c.6.4 1 .8 1.6 1.2-1.1-1-1.6-1.3-1.8-1.5l-.1-.1a40.64 40.64 0 0 1 16.6 27.8q-.2-1-.3-2l-.1.2c0 .1.4 2 .6 2.9v-.1q.2 2.1.2 4.3c-.1.5-.4 1-.5 1.6q0 .3 0 .6 0-.1-.1-.3zm-3.7-13.7zM174.6 9.9c.3.4.3.4 1.2 1.4q.2.3.4.7c-.4-.9-.8-1.7-1.6-2.1zm1.6 2.1c.5.9.9 1.8 1.9 2-.4-.8-1.3-1.3-1.9-2zm1.4 7.2c.3 1 .3 1 .5 1.2q.2.2-.2.2c-1 .1-1.3.5-1.5.6.2-.8.2-.8.2-.9l-.5-.7h.2c-.1-.3-.2-.4-.3-.7l.2-.1c0-.1-.3-1-.9-.8l-.1-.2c-.2-.2-.2-.6-.5-.9 0-.1 0-.1-.2-.1-.2-.1-.2-.2-.3-.4-.5-.9-.5-1.1-.2-1.3q.3.3.4.8v.2c.2.1.4-.3.5-.2.1.2.1.3.2.7.2.4.2.7.5.6.2.2.3.4.5.6.2.3.5.5.7.7.2.3.3.5.4.7q.2 0 .4 0zM155.4 6q0 0 .1 0 0 0 .1 0 0 0 .1 0v.1h.1.1v.1h.1v.1h.1.1.1.1s0-.2-1.1-1.2l-.1.1.1.4c-.1 0-.5-.1-.5-.7v-.1-.1h-.1v-.1-.1q0-.1-.1-.2 0-.1-.1-.3-.2-.2-.3-.4h-.1v-.1q-.4-.5-.9-.8-.4-.2-.7-.4-.3-.1-.5-.1-.2-.1-.3-.1 0 0-.1 0v.1h-.1v.1c-.5-.2-.6-.4-.6-.5h-.1-.1v-.1c-.2 0-.2-.1-.2-.2.1-.1.1-.1.3-.1-.2-.2-.5-.2-.6-.5 0-.2.1-.4.5-.5 0-.1-.1-.2-.2-.3h2.1.1c1.6.3 4.2 1.3 4.7 1.5h-.1v.1c0 .1 0 .1 1.4.8l.8.4V3h.1l.1.1h.1c.6.3.9.7 1 .9v.1c.8 1 2.1 1.5 2.6 2.7h.1v.1.1q0 .1 0 .2v.1q-.1.1-.1.2v.1q0 0-.1.1 0 .1-.1.1 0 .1 0 .1h-.1q0 0-.1.1 0 0-.1 0 0 0-.1 0 0 0-.1 0h-.1-.1-.1-.1-.1-.1c.3.9.3.9.1 1.5v.1h-.1v.1q0 0 0 .1-.1 0-.2.1-.1.1-.2.1v.1h-.1v.1h-.1v.1h-.1v.1h-.1v.1q0 .1 0 .2c-.1.4.3.6.4.9 0 .3-.3.3-.3.6a.76.76 0 0 0 .2.4c.2.7.3 1 .2 1.3-.1.5-.4.3-.7.2-.3-.2-.3-.7-.7-.7-.6.1-.7.1-.8 0 0-.1-.8-1-1.6-2.2v-.1h-.1V11h-.1v-.1-.1h-.1v-.1l-.1-.1q-.1-.1-.1-.2l-.1-.1v-.1h-.1v-.1q-.1-.3-.3-.5v-.1-.1h-.1v-.1-.1h-.1v-.1V9h-.1v-.1-.1-.1c-.2-.7-.3-.8.1-.9.3-.2.1-.8.1-.8-.4-.6-1.2-.5-1.6-1h.1q0 0 0 0zm-10.5 5.7c-2.6 2.7-2.6 2.7-2.6 3.1.2.1.5.3.7.2l.3.3c0 .2-.1.5-.2.7 2.4 1.7 2.8 1.7 3.9 1.6-.2 1.8-.2 1.8.8 2.6.1-.1.3-.1.4-.1.6-.9-.2-2.3 1.1-2.9 0-.8 0-.8-.8-2.2.5-.6.5-.6.3-2.4a.76.76 0 0 1 .4-.2c1 .1 1.8.8 2.8 1.1.1.4.3 1 .4 1.4.2.1.4.3.6.4.5 0 .5 0 .8-1.2.4.1 4.4 5 4.4 5v2.5l1.2-.1c.4 1 .4 1-2.4 1.2.3-.7.6-1.6.8-2.4l-3.9.6s-.5.4-1.6 1.9c1.5-1.5 1.9-1.4 2.4-1.2.1.1.1.2.1.3-.2.2-.6.4-.9.5.3.1.5.3.7.5v.4q.6.3 1.2.6c.2-.1.5-.3.6-.5h.4v.4c-.5.6-.8.8-2.3 1.3-.2-.3-.1-.7-.2-1.1-.2.1-.3.2-.5.2v.1-.1.4l-3.2 2.6c-3.6 6.2-3.6 6.2-3.3 8.8-.7-.1-.7-.1-1.2-2.7-.5-.3-1.1-.3-1.7-.3-.4 0-.8 0-1.2-.1a.76.76 0 0 1-.4.2v.4c-.1.1-.1.1-2.4-.1-.1.1-.3.4-.4.6-1.6.4-1.2 4.3-.3 5.2.7.8 1.4.1 2.1-.5s1.5-1.2 2.3-.5c-.2.5-.7 1.8-.7 2.8.4.1.9.1 1.3.1q.5 0 1 0c.6 1.1-.6 3 1 3.5 1.3-.7 1.4-.8 2.2.1.5-.1.5-.2.7-1.1 5.9-1.8 11.3 2.5 12.8 5.3 2.1.5 3.7 2.2 5.8 2.6.1.6.1 1 0 1.3l-3.7 6.4c-.9.9-2.6.4-3.2 1.8q-.2.6-.4 1l-.1.1v.1.1h-.1v.1.1h-.1v.1l-.1.1v.1q-.1.1-.1.1v.1h-.1v.1h-.1v.1l-.1.1-.1.1h-.1v.1l-.1.1h-.1v.1h-.1v.1h-.1v.1l-.1.1h-.1v.1h-.1v.1c-.2.1-.3.3-.5.4-.5.4-1.2.4-1.7.6v.4c.1 0 .2.1.3.1-.4 1.4-2.1 1.2-2.7 2.4h-.1-.1V68h-.1-.1-.1-.1v-.1h-.1c-.1.1-.1.2-.2.3.1.2.3.4.5.6-.2.1-.5.3-.7.3l-.3.6c-.2.1-.4.3-.5.5.1.2.2.5.4.6.1.1.1.2.1.3v.1h-.1v.1h-.1v.1h-.1v.1h-.1v.1l-.1.1h-.1v.1c-.9 1-1 1.4-.5 2.1h.1v.1h.1v.1l.1.1h.1v.1l.1.1.1.1h-.1q-.1 0-.1 0h-.1v.1q-.1 0-.2 0h-.1-.1-.1-.1-.1v-.1q-.1 0-.1 0h-.1-.1-.1v-.1h-.1-.1v-.1h-.1q0-.1-.1-.1l-.1-.1-.1-.1v-.1h-.1v-.1h-.1v-.1-.1h-.1q0-.1 0-.1v-.1l-.1-.1v-.1-.1-.1-.1h-.1v-.1-.1-.1-.1-.1-.1-.1-.1-.1-.1-.1-.1h.1v-.1-.1-.1-.1c.2-1 .5-1.9.5-2.9v-.1-.1c-.1.2-.3.5-.5.6v-.1-.1l.1-.1v-.1-.1-.1l.1-.1V68v-.1l.1-.1v-.1-.1-.1-.1l.1-.1v-.1-.1-.1-.1l.1-.1v-.1l.1-.4v-.1-.1-.1l.1-.3v-.2-.2l.1-.1v-.3-.2-.1h.1v-.2-.1-.1-.1l.1-.3v-.1l.1-.2v-.1-.3l.1-.2v-.1-.1c.9-4.2.9-4.2-1.8-6.8-.1-.1-3.1-2.9-2.4-5.6-1.3-2.1 2.8-3.9.8-5.6-.2.1-.2.1-1 .7l-2.5-1.5v-.4c-1.1-.7-2.3-1.1-3.3-1.9-4.3-1.4-4.7-1.6-6-2.7 0 0-2.8-5.5-3.5-6.4 0 .1-.1.2-.2.2 0 .1.8 2.6 1.9 4.1-.1.1-.1.2-.2.4-1-.7-1.2-2-2.2-2.7.1 0 .2-.1.4-.1 0-.1-.5-2.7-1.6-3.6-1.8-1.4-1.8-1.4-.4-8.4.2 0 .6-.1.8-.2-.3-1.3-.3-1.3-1.4-1.7-.9-5.6-.9-5.6-2.3-7-.2.4-.3.7-1.8 1.5.2-.4.2-.4.7-1-1.8 1.2-3.1 3.1-5.1 3.9 1.6-1.2 1.8-1.4 2.8-2.4-.1-.1-.1-.3-.1-.4-.1 0-.2-.1-.3-.2.1-.2.2-.5.4-.7h-.4c.6-1.6 3-1.5 3.2-3.4-.1 0-.2.1-.3.1s-.2-.1-.3-.2c.1-.2.6-1.1 1.7-1.3 0 .1-.1.2-.1.4 2.1-1 2.7-4.2 5.7-3.9 0 .1-.1.2-.1.3.6.2.9.4 1.1.6h.1v.1.1.1.1.1q0 .2-.1.4.1 0 .2-.1h.1.1q.1-.1.2-.1h.1v-.1q.2 0 .3-.1.2-.1.4-.2V7h.1q.1 0 .1-.1h.1q.1-.1.2-.1.1 0 .2-.1.1 0 .1 0h.1.1v-.1h.1.1.1.1.1.1c0 .3-.1.6-.1.8v-.1h.1.1v-.1h.1l.1-.1q.1-.1.2-.1h.1q0 0 .1 0 0 0 .1 0 .1 0 .1 0h.1q.1.1.3.2h.1l.1.1h.1l.1.1.1.1h.1l.1.1h.1v.1h.1.1c-.2.2-.4.4-.5.6q0 0 .1 0 0 0 .2 0h.1.1v-.1h.2.1.1.1l.1-.1h.1.1.1.1.1V8h.1.1.1.1l.1-.1h.1.1.1.1.1l.1-.1h.1v.1h.1V8v.1h.1v.1h.1v.1h.1.1v.1h.1.1.1q0 0 0 0h.1.1.1.1.1v-.1h.1.1l.1-.1h.1v-.1h.1.1c-.1-.8.1-1.1.7-1.2.1.4.1.8.2 1.1.7-.6.7-.8.2-1.3.1-.6.3-1 .9-1.5l.1.1c0 .4 0 .4-.1 1.6.1.1.2.2.3.2 0 .2 0 .5-.1.7.2-.1.4-.3.6-.5.1.5.1.6-.1 1.2 0 .1.1.2.2.2 0 0 .9-.8 1-1.8.1 0 .2-.1.3-.1.2.1.5.3.6.5 0 .2-.1.5-.2.7q.1.1.1.1v.1.1.1.1.1.1h-.1v.1.1h-.1V9h-.1v.1h-.1v.1h-.1l-.1.1-.1.1h-.1v.1h-.1q-.1 0-.1.1h-.1q-.1.1-.2.1l-.1.1h-.1-.1v.1h-.1q-.1 0-.2 0l-.2.1q-.2 0-.3 0h-.1q0 0-.1 0 0 0-.1 0c.1.1.1.3.2.4h.3c.1.1.1.2.1.3v.1h-.1v.1h-.1v.1h-.1v.1h-.1v.1h-.1v.1l-.1.1h-.1zm26.1-6l-3.8-2q1.9.9 3.8 2zm-2.8 4.6l.3.6c-.1 0-.1 0-.1.4 0 .2 0 .5-.4.5-.3 0-.5-.3-.9-.3h-.3c-.1-.1-.1-.2 0-.2 0-.1.1-.3-.7-.6.5 0 .1-.4.1-.4-.1-.1-.2-.1-.3-.1-.2 0-.3 0-.4-.1 0 0-.1-.2.1-.3 0 0 .1 0 .3.1-.3-.2-.6-.5-.4-.5.3.1.4.2.6.5.1.1.2.2.3.2h.1c0-.1 0-.2.1-.3l.1-.1c.3-.1.8-.4 1.5.6zm7 7.9c0 .1-.1.3 0 .4 0 .1.1.2.1.3q.3.4.3.7l-.1.2c0 .1-.2.1-.2.2-.1.1 0 .2 0 .3h-.1s-.3-.2-.4-.3q0-.1 0-.2c.1-.5-.1-.8-.1-.8-.1.1-.2.2-.5-.3-.1-.2 0-.2.1-.2.1-.1.3 0 .3-.1 0-.3-.2-.4-.3-.6s.1-.2.1-.2c.2 0 .7.3.8.6zM150 72q0 0-.1 0 .1 0 .1 0 .1 0 .1 0 0 0-.1 0z" fill="#7bc446"/></g><g fill="#0e3e83"><path d="M1.4 124.6q-.5-.8-.9-2.1-.4-1.3-.4-2.8 0-2.7 1.2-3.9 1.2-1.2 3.2-1.2H35q.5.8.9 2.1.4 1.3.4 2.8 0 2.7-1.2 3.9-1.2 1.2-3.2 1.2h-7.7v32.3q-.8.2-2.4.4-1.7.2-3.3.2-1.6 0-2.8-.2-1.3-.3-2.1-.9-.8-.6-1.3-1.8-.4-1.1-.4-2.9v-27.1z"/><path d="M53.8 158.3q-4.2 0-7.7-1.2-3.5-1.1-6.1-3.4-2.7-2.3-4.2-5.8-1.5-3.5-1.5-8.2 0-4.6 1.5-7.9 1.5-3.4 4-5.5 2.4-2.1 5.6-3.1 3.1-1.1 6.4-1.1 3.7 0 6.8 1.2 3 1.1 5.2 3 2.2 2 3.4 4.7 1.3 2.7 1.3 6 0 2.3-1.4 3.6-1.3 1.3-3.7 1.6l-17.3 2.6q.8 2.3 3.2 3.4 2.4 1.2 5.5 1.2 2.8 0 5.4-.7 2.5-.8 4.1-1.7 1.2.6 1.9 1.9.8 1.3.8 2.7 0 3.1-2.9 4.6-2.3 1.2-5.1 1.7-2.8.4-5.2.4zm-2-27.5q-1.7 0-2.9.6-1.2.5-2 1.4-.8.9-1.1 2-.4 1-.5 2.2l12-2q-.2-1.4-1.6-2.8-1.3-1.4-3.9-1.4zm32.9 26.3q-.7.2-2.2.4-1.5.2-3.1.2-1.6 0-2.8-.2-1.2-.2-2-.8-.9-.7-1.3-1.7-.5-1.1-.5-2.9v-20.9q0-1.6.6-2.8.6-1.2 1.7-2.1 1.1-.9 2.8-1.6 1.6-.7 3.5-1.3 1.9-.6 3.9-.9 2.1-.3 4.1-.3 3.4 0 5.3 1.3 2 1.3 2 4.2 0 1-.3 2-.3.9-.7 1.7-1.5 0-3 .1-1.6.1-3 .4-1.5.3-2.8.6-1.3.3-2.2.8zm26.7 0q-.7.2-2.2.4-1.5.2-3.2.2-1.5 0-2.7-.2-1.2-.2-2.1-.9-.8-.6-1.3-1.7-.4-1.1-.4-2.8v-21q0-1.6.6-2.7.6-1.2 1.7-2.1 1.1-.9 2.7-1.6 1.7-.8 3.6-1.3 1.9-.6 3.9-.9 2-.3 4.1-.3 3.3 0 5.3 1.3 1.9 1.3 1.9 4.2 0 1-.2 1.9-.3 1-.7 1.7-1.5 0-3.1.2-1.5.1-3 .4-1.4.3-2.7.6-1.3.3-2.2.7zm28.4-34.9q3.8 0 6.9.8 3.1.7 5.3 2.3 2.2 1.6 3.4 4 1.2 2.4 1.2 5.7v15.6q0 1.8-1 3-1.1 1.2-2.5 2-4.5 2.7-12.8 2.7-3.7 0-6.6-.7-3-.7-5.2-2.1-2.1-1.4-3.2-3.5-1.2-2.2-1.2-5.1 0-4.8 2.9-7.4 2.8-2.6 8.9-3.2l9.1-1v-.5q0-2-1.8-2.9-1.7-.8-5.1-.8-2.7 0-5.2.5-2.5.6-4.5 1.4-.9-.6-1.6-1.9-.6-1.3-.6-2.7 0-1.8.9-2.9.9-1.1 2.7-1.8 2-.8 4.8-1.2 2.7-.3 5.2-.3zm.5 27.5q1.2 0 2.7-.3 1.4-.2 2.1-.7v-5.5l-5 .4q-2 .1-3.3.8-1.2.7-1.2 2.1 0 1.4 1.1 2.3 1 .9 3.6.9z" fill-rule="evenodd"/></g><path fill-rule="evenodd" d="M181.6 131.5q-1.7 0-3.3.6-1.6.5-2.7 1.6-1.2 1.1-1.9 2.7-.7 1.6-.7 3.8 0 4.3 2.5 6.5 2.5 2.1 6.1 2.1 2.1 0 3.6-.5 1.5-.4 2.7-1 1.4 1 2.1 2.1.7 1.2.7 2.8 0 2.8-2.7 4.4-2.7 1.6-7.6 1.6-4.4 0-7.9-1.3-3.6-1.3-6.2-3.6-2.5-2.4-3.9-5.7-1.4-3.2-1.4-7.2 0-4.6 1.5-8.1 1.5-3.5 4.1-5.7 2.6-2.2 6-3.3 3.4-1.2 7.1-1.2 5.1 0 7.8 1.9 2.7 1.8 2.7 4.6 0 1.4-.6 2.5-.6 1.2-1.5 2-1.2-.5-2.8-1.1-1.7-.5-3.7-.5zm13.4-17.7q0-2.7 1.8-4.5 1.8-1.8 4.7-1.8 2.9 0 4.7 1.8 1.8 1.8 1.8 4.5 0 2.6-1.8 4.4-1.8 1.8-4.7 1.8-2.9 0-4.7-1.8-1.8-1.8-1.8-4.4zm12.4 43.3q-.7.1-2.2.4-1.5.2-3.1.2-1.5 0-2.7-.2-1.3-.2-2.1-.8-.8-.7-1.3-1.8-.4-1-.4-2.8v-28.4q.7-.2 2.2-.4 1.5-.3 3.1-.3 1.5 0 2.7.3 1.3.2 2.1.8.8.6 1.3 1.7.4 1.1.4 2.8zm25.4-25.5q-1.8 0-3.3.5-1.6.6-2.8 1.7-1.1 1-1.8 2.7-.7 1.6-.7 3.7 0 4.4 2.5 6.5 2.4 2.2 6 2.2 2.1 0 3.7-.5 1.5-.5 2.7-1 1.4.9 2.1 2.1.7 1.1.7 2.7 0 2.9-2.7 4.5-2.8 1.6-7.6 1.6-4.4 0-8-1.3-3.6-1.3-6.1-3.7-2.6-2.3-4-5.6-1.4-3.3-1.4-7.3 0-4.6 1.5-8 1.5-3.5 4.1-5.7 2.6-2.3 6-3.4 3.4-1.1 7.2-1.1 5 0 7.8 1.8 2.7 1.8 2.7 4.7 0 1.3-.6 2.5-.7 1.1-1.5 2-1.2-.6-2.9-1.1-1.7-.5-3.6-.5zm25.7 25.5q-.7.2-2.2.4-1.5.3-3.1.3-1.5 0-2.7-.2-1.3-.3-2.1-.9-.9-.6-1.3-1.7-.5-1.1-.5-2.8v-40.5q.8-.2 2.3-.4 1.5-.3 3.1-.3 1.5 0 2.7.2 1.2.2 2.1.9.8.6 1.3 1.7.4 1.1.4 2.8zm41.3-16.9q0 4.3-1.3 7.7-1.3 3.4-3.8 5.7-2.4 2.3-5.7 3.5-3.4 1.2-7.5 1.2-4.1 0-7.5-1.3-3.4-1.2-5.8-3.6-2.4-2.3-3.7-5.7-1.3-3.3-1.3-7.5 0-4.1 1.3-7.5 1.3-3.3 3.7-5.7 2.4-2.3 5.8-3.6 3.4-1.2 7.5-1.2 4.1 0 7.5 1.3 3.3 1.3 5.7 3.6 2.5 2.3 3.8 5.7 1.3 3.4 1.3 7.4zm-24.5 0q0 4.3 1.7 6.5 1.6 2.3 4.6 2.3 2.9 0 4.5-2.3 1.5-2.3 1.5-6.5 0-4.2-1.6-6.5-1.6-2.2-4.5-2.2-3 0-4.6 2.2-1.6 2.3-1.6 6.5z" fill="#7bc446"/><path fill-rule="evenodd" d="M53.6 168.7q.4-.2 1.1-.4.7-.2 1.4-.2 1 0 1.8.3.8.3 1 .9.4 1.1.8 2.5.4 1.4.9 2.9.4 1.5.8 2.9.4 1.5.7 2.6-.2.3-.7.4-.5.2-1.2.2-.5 0-.8-.1-.4 0-.6-.2-.2-.2-.3-.4-.1-.3-.2-.6l-.4-1.4h-3.7q-.2.6-.3 1.2-.2.7-.3 1.3-.3.1-.6.2-.4 0-.8 0-1 0-1.5-.3-.5-.4-.5-1 0-.3 0-.6.1-.3.2-.7.2-.5.4-1.3.3-.8.6-1.8.3-.9.6-1.9.4-1 .7-1.9.3-.9.5-1.6.3-.6.4-1zm2.5 2.6q-.3.9-.7 1.9-.3 1-.6 2.1h2.5q-.3-1.1-.6-2.1-.3-1.1-.5-1.9zm28 6.3q-.3.2-.7.4-.4.1-1 .1-.7 0-1.2-.2-.5-.2-.6-.6-.6-1.8-.9-2.9-.4-1.1-.6-2H79q-.1 1.2-.1 2.2 0 1 0 1.9 0 1-.1 1.9 0 1-.1 2.1-.2.1-.7.2-.4.1-.8.1-.9 0-1.4-.3-.5-.3-.5-1l.6-10.4q.2-.2.7-.6.6-.3 1.5-.3 1.1 0 1.7.4.6.3.9 1.1.2.5.4 1.1.2.6.5 1.3.2.6.4 1.3.2.7.3 1.2h.1q.5-1.7 1-3.3.5-1.6.9-2.7.3-.1.8-.2.5-.2 1.1-.2.9 0 1.6.3.6.3.7.9.1.4.2 1.2.1.9.2 1.9.1 1.1.2 2.3.1 1.1.2 2.2.1 1.1.1 2 .1.9.1 1.4-.3.2-.7.3-.4.1-1 .1-.8 0-1.3-.3-.5-.2-.5-1-.2-2.2-.2-4 0-1.8-.1-3h-.1q-.2.8-.6 2-.4 1.2-.9 3.1zm24.2 3.3q-.3 0-.8 0-.5 0-1-.1-.5 0-.9-.1-.5-.1-.9-.3-1.2-.4-1.2-1.4v-9.5q0-.4.3-.7.2-.2.6-.4.7-.2 1.7-.3 1.1-.1 2.2-.1 2.6 0 4 .9 1.4.8 1.4 2.7 0 .9-.5 1.5-.6.7-1.5 1 1.1.3 1.7 1 .7.8.7 1.9 0 2-1.5 3-1.5.9-4.3.9zm-1.3-7.8h1.5q.9 0 1.3-.3.4-.3.4-.9 0-.6-.5-.9-.5-.3-1.4-.3-.3 0-.7 0-.4 0-.6 0zm0 5q.3.1.7.1.5 0 .9 0 .8 0 1.3-.3.6-.3.6-1 0-.7-.5-1-.4-.3-1.3-.3H107zm24.5 2.5q-.3 0-.7.1-.5.1-1 .1-.4 0-.8-.1-.4-.1-.6-.3-.2-.2-.4-.5-.1-.3-.1-.8v-10.7q.2-.1.7-.2.5 0 1 0 .4 0 .8 0 .3.1.6.3.2.2.3.5.2.3.2.9zm14.4-10.4q0-.8.5-1.3.5-.6 1.4-.6h6.7q.1.3.2.6.2.4.2.8 0 .8-.4 1.1-.3.3-.9.3h-4.3v1.9h4.6q.2.2.3.6.1.3.1.8 0 .7-.3 1-.4.4-.9.4h-3.8v2.1h5.3q.1.2.2.6.1.4.1.8 0 .7-.3 1.1-.3.3-.9.3h-5.9q-.9 0-1.4-.5-.5-.5-.5-1.4zm34.1 10q-.3.3-.9.4-.5.2-1.2.2-.8 0-1.5-.2-.6-.3-1.1-1.1l-2-4.1q-.3-.6-.5-1.2-.3-.6-.6-1.3h-.1q.1 1.1.1 2.3 0 1.1 0 2.2v3.1q-.2.1-.7.2-.4 0-.9 0-.4 0-.8 0-.3-.1-.5-.3-.2-.2-.4-.5-.1-.3-.1-.8V169q.3-.5.9-.7.6-.2 1.2-.2.8 0 1.5.3.7.2 1.1 1l2 4.1q.3.7.5 1.2.3.6.6 1.3h.1q-.1-1.1-.1-2.2 0-1.1 0-2.2v-3.3q.2 0 .6-.1.5-.1.9-.1.9 0 1.4.4.5.3.5 1.3zm13.8-9.1q-.1-.2-.2-.6-.2-.4-.2-.8 0-.8.4-1.1.3-.4.9-.4h8.9q.1.3.2.6.2.4.2.9 0 .7-.4 1.1-.4.3-.9.3h-2.3v9.4q-.2.1-.7.1-.5.1-.9.1-.5 0-.8-.1-.4 0-.6-.2-.3-.2-.4-.5-.1-.4-.1-.9v-7.9zm25.4-2.4q.4-.2 1.1-.4.7-.2 1.4-.2 1 0 1.8.3.8.3 1 .9.4 1.1.8 2.5.4 1.4.8 2.9.5 1.5.9 2.9.4 1.5.7 2.6-.3.3-.8.4-.4.2-1.1.2-.5 0-.8-.1-.4-.1-.6-.2-.2-.2-.3-.5-.2-.2-.3-.6l-.3-1.4h-3.7q-.2.6-.3 1.3-.2.6-.4 1.3-.2.1-.6.1-.3.1-.7.1-1.1 0-1.5-.4-.5-.3-.5-.9 0-.3 0-.6.1-.3.2-.7.2-.5.4-1.3.3-.9.6-1.8.3-.9.6-1.9.4-1 .7-1.9.3-.9.5-1.6.3-.7.4-1zm2.5 2.6q-.3.8-.7 1.9-.3 1-.6 2.1h2.5q-.3-1.1-.6-2.1-.3-1.1-.5-1.9zm21.3 9.4q-.8 0-1.3-.6-.5-.5-.5-1.3v-10.5q.2-.1.7-.1.5-.1.9-.1.5 0 .8.1.4 0 .6.2.3.2.4.5.1.4.1.9v8h4.7q.1.2.2.6.1.4.1.8 0 .8-.3 1.1-.3.4-.9.4z" fill="#0e3e83"/><path fill-rule="evenodd" d="M117.9 102.4l-12.1-7.8c-6.6-4.2-5.1-3.7-7.4-8.4-2.1-4.2-3.6-8-5.4-11.9-1.2-2.5-1.2-3-.9-7 .4-4 .5-8.4.4-13.9 0-2.7 1.8-3.4 3.3-1.2 1.1 1.6 1.7 4 2 6.9.3 3-.1 4.3.9 8.9-2.2.5-3.2 2.7-1.1 5.6 1.8 2.5 3.3 5.2 5.4 7.4 3.8 3.8 7.5 8.4 11.1 13-2.5-4.3-5.8-9.1-8.7-11.9-2.5-2.5-4.2-5.2-6.2-7.8-1-1.4-3-3.3-1.3-5.1 1.2-1.2 2.9-.4 4.2.2 3.4 1.5 6.4 4.4 9.5 8.7 2.9 3.9 5.5 4.6 8.7 4.7 5.8.3 9.8 3 13.3 6 5.6 4.8 8.2 9.3 8.5 14.9l-.3 10.6h-17.9l.1-3c.1-4.7-.8-5.5-6.1-8.9zm-15.8-45.2c.2 4 .1 7.2 1 11.9q-.3-.2-.7-.3l-.2-.1c-.3-1.9-.5-3.7-.7-5.6-.1-1.5-.1-2.9-.1-4.4q0-1.3 0-2.7.6-.1.7 1.2zm-1.5-2c.1 4.3-.1 7.7.9 13.2 0 0-.7-.3-.9-.3l-.1-.2a81.59 81.59 0 0 1-.6-6.8c-.1-1.5-.1-3 0-4.4q0-1.4 0-2.7.7-.1.7 1.2zm2 15.5c-1.8-1.1-3.3-1.9-4.3-.7-.7 1-.2 2 .9 3.4 1.8 2.3 3 2.2 4.2.8 1-1.2 1.1-2.2-.8-3.5zM139 100q-3.8-11.5-15.3-14.7c6.4 3.3 11.5 8.2 15.3 14.7zM99.4 67.9a21.98 21.98 0 0 1-.6-3.7q-.1-1.3-.2-2.5 0-1.4-.1-2.7c-.3-2.5-.8-6-2.7-7.9-.3-1.6.3-3 1.1-3.1 2.2-.1 2.4 2.6 2.5 4.2.1 5.2-.7 6.9.6 15.8q-.3-.1-.6-.1zm76.6 43.4l.1 3h-17.9l-.2-10.6c.2-5.6 2.8-10.1 8.4-14.9 3.5-3 7.5-5.7 13.3-6 3.2-.1 5.8-.8 8.7-4.7 3.1-4.3 6.1-7.2 9.5-8.7 1.3-.6 3-1.4 4.2-.2 1.7 1.8-.2 3.7-1.3 5.1-1.9 2.6-3.7 5.3-6.2 7.8-2.9 2.8-6.2 7.6-8.6 11.9 3.5-4.6 7.2-9.2 11-13 2.1-2.2 3.6-4.9 5.5-7.4 2-2.9 1-5.1-1.2-5.6 1-4.6.7-5.9.9-8.9.3-2.9.9-5.3 2-6.9 1.5-2.2 3.3-1.5 3.3 1.2-.1 5.5 0 9.9.4 13.9.3 4 .3 4.5-.8 7-1.9 3.9-3.4 7.7-5.5 11.9-2.3 4.7-.8 4.2-7.4 8.4l-12.1 7.8c-5.3 3.4-6.2 4.2-6.1 8.9zM198.7 56q-.1 1.4-.1 2.7c0 1.5 0 2.9-.1 4.4q-.2 2.8-.7 5.6l-.2.1q-.4.1-.7.3c.9-4.7.9-7.9 1-11.9q.1-1.3.8-1.2zm1.4-2q0 1.3 0 2.7c.1 1.4.1 2.9.1 4.4-.1 2.2-.4 4.5-.7 6.8l-.1.2c-.2 0-.9.3-.9.3 1.1-5.5.8-8.9.9-13.2q0-1.3.7-1.2zm-23.8 31.3Q164.9 88.5 161 100c3.8-6.5 8.9-11.4 15.3-14.7zm20.3-11.1c1.2 1.4 2.4 1.5 4.2-.8 1.1-1.4 1.7-2.4.9-3.4-1-1.2-2.5-.4-4.3.7-1.9 1.3-1.8 2.3-.8 3.5zM200 68c1.3-8.9.5-10.6.7-15.8 0-1.6.2-4.3 2.4-4.2.8.1 1.4 1.5 1.1 3.1-1.9 1.9-2.4 5.4-2.7 7.9q-.1 1.3-.1 2.7-.1 1.2-.2 2.5a21.98 21.98 0 0 1-.6 3.7q-.3 0-.6.1z" fill="#7bc446"/></svg>